<?xml version="1.0" standalone="no"?><!DOCTYPE svg PUBLIC "-//W3C//DTD SVG 1.1//EN" "http://www.w3.org/Graphics/SVG/1.1/DTD/svg11.dtd"><svg t="1682055627669" class="icon" viewBox="0 0 1024 1024" version="1.1" xmlns="http://www.w3.org/2000/svg" p-id="3358" width="32" height="32" xmlns:xlink="http://www.w3.org/1999/xlink"><path d="M847.002 557.661c2.795 10.25 4.193 21.433 4.193 32.148 0 23.297-6.058 46.593-17.705 67.094 0.932 6.523 1.397 13.512 1.397 20.035 0 29.819-9.784 59.639-27.956 82.935 0.932 88.061-59.173 139.778-145.369 139.778l-16.773 0-43.331 0c-66.161 0-127.664-19.569-189.166-41.002-13.512-4.659-51.252-18.637-64.298-18.637L213.807 840.012c-33.081 0-59.639-26.558-59.639-59.639L154.168 482.181c0-33.081 26.558-59.639 59.639-59.639l127.664 0c18.171-12.114 49.854-54.047 63.832-72.219 15.842-20.501 32.149-40.535 49.854-59.639 27.955-29.819 13.046-103.436 59.639-149.097 11.183-10.716 26.092-17.239 41.934-17.239 48.456 0 95.049 17.239 117.879 62.435 14.444 28.422 16.308 55.445 16.308 86.662 0 32.615-8.387 60.57-22.364 89.458l82.003 0c64.298 0 119.277 54.514 119.277 118.812C869.832 508.738 861.911 535.297 847.002 557.661zM243.626 720.735c-16.308 0-29.819 13.512-29.819 29.819s13.512 29.819 29.819 29.819 29.819-13.512 29.819-29.819S259.934 720.735 243.626 720.735zM750.555 422.542 586.549 422.542c0-54.514 44.729-94.117 44.729-149.097 0-54.514-10.717-89.458-74.548-89.458-29.819 30.285-14.444 101.572-59.639 149.097-13.046 13.512-24.229 27.956-35.877 42.399-20.967 27.024-76.412 106.697-113.22 106.697l-14.91 0 0 298.193 14.91 0c26.092 0 68.957 16.773 94.117 25.626 51.252 17.705 104.367 34.013 159.347 34.013l56.377 0c52.65 0 89.458-20.967 89.458-77.81 0-8.853-0.932-17.705-2.329-26.092 19.568-10.717 30.285-37.274 30.285-58.707 0-11.183-2.796-22.364-8.387-32.149 15.842-14.909 24.694-33.547 24.694-55.445 0-14.909-6.523-36.808-16.308-47.99 21.898-0.466 34.944-42.399 34.944-59.639C810.193 450.498 781.771 422.542 750.555 422.542z" p-id="3359"></path></svg>