<?xml version="1.0" standalone="no"?><!DOCTYPE svg PUBLIC "-//W3C//DTD SVG 1.1//EN" "http://www.w3.org/Graphics/SVG/1.1/DTD/svg11.dtd"><svg t="1682055521095" class="icon" viewBox="0 0 1024 1024" version="1.1" xmlns="http://www.w3.org/2000/svg" p-id="3150" width="32" height="32" xmlns:xlink="http://www.w3.org/1999/xlink"><path d="M750.555 661.097l-82.003 0c13.978 28.888 22.364 56.843 22.364 89.458 0 30.751-1.863 58.707-16.308 86.662-22.83 45.195-69.423 62.435-117.879 62.435-15.842 0-30.751-6.523-41.934-17.239-46.593-45.661-32.149-119.277-59.639-149.563-17.705-18.638-34.013-38.672-49.854-59.173-13.978-18.171-45.661-60.104-63.832-72.219L213.807 601.458c-33.081 0-59.639-26.558-59.639-59.639L154.168 243.626c0-33.081 26.558-59.639 59.639-59.639l134.188 0c13.046 0 50.786-13.978 64.298-18.637 67.094-23.297 125.334-41.002 197.087-41.002l52.184 0c84.799 0 145.835 50.32 145.369 137.448l0 2.33c18.172 23.297 27.956 53.116 27.956 82.936 0 6.522-0.466 13.512-1.397 20.034 11.647 20.501 17.705 43.797 17.705 67.094 0 10.716-1.398 21.898-4.193 32.149 14.909 22.364 22.83 48.922 22.83 75.945C869.832 606.583 814.853 661.097 750.555 661.097zM243.626 243.626c-16.308 0-29.819 13.512-29.819 29.819s13.512 29.819 29.819 29.819 29.819-13.512 29.819-29.819S259.934 243.626 243.626 243.626zM775.249 482.181c9.784-11.182 16.308-33.081 16.308-47.99 0-21.898-8.853-40.536-24.694-55.445 5.591-9.784 8.387-20.967 8.387-32.149 0-21.433-10.717-47.99-30.285-58.706 1.397-8.387 2.329-17.239 2.329-26.093 0-54.513-34.479-77.81-86.196-77.81l-59.639 0c-54.979 0-108.095 16.308-159.347 34.013-25.16 8.853-68.025 25.626-94.117 25.626l-14.91 0 0 298.193 14.91 0c36.808 0 92.253 79.674 113.22 106.697 11.648 14.443 22.831 28.888 35.877 42.399 45.194 47.524 29.819 118.812 59.639 149.097 63.831 0 74.548-34.944 74.548-89.458 0-54.979-44.729-94.583-44.729-149.097l164.006 0c31.217 0 59.639-27.956 59.639-59.639C810.193 524.58 797.147 482.646 775.249 482.181z" p-id="3151"></path></svg>